<?xml version="1.0" encoding="UTF-8" standalone="no"?>
<svg
   xmlns:dc="http://purl.org/dc/elements/1.1/"
   xmlns:cc="http://creativecommons.org/ns#"
   xmlns:rdf="http://www.w3.org/1999/02/22-rdf-syntax-ns#"
   xmlns:svg="http://www.w3.org/2000/svg"
   xmlns="http://www.w3.org/2000/svg"
   viewBox="0 0 1200 675"
   height="675"
   width="1200"
   xml:space="preserve"
   version="1.1"
   id="svg2"><metadata
     id="metadata8"><rdf:RDF><cc:Work
         rdf:about=""><dc:format>image/svg+xml</dc:format><dc:type
           rdf:resource="http://purl.org/dc/dcmitype/StillImage" /></cc:Work></rdf:RDF></metadata><defs
     id="defs6"><clipPath
       id="clipPath16"
       clipPathUnits="userSpaceOnUse"><path
         style="clip-rule:evenodd"
         id="path18"
         d="m 0,1.2207e-4 960,0 0,539.99999793 -960,0 L 0,1.2207e-4 Z" /></clipPath><clipPath
       id="clipPath38"
       clipPathUnits="userSpaceOnUse"><path
         style="clip-rule:evenodd"
         id="path40"
         d="M 1.4305e-5,0 960.00001,0 l 0,540 -959.999995695,0 0,-540 z" /></clipPath><clipPath
       id="clipPath50"
       clipPathUnits="userSpaceOnUse"><path
         style="clip-rule:evenodd"
         id="path52"
         d="M 1.4305e-5,0 960.00001,0 l 0,540 -959.999995695,0 0,-540 z" /></clipPath><clipPath
       id="clipPath66"
       clipPathUnits="userSpaceOnUse"><path
         style="clip-rule:evenodd"
         id="path68"
         d="M 1.4305e-5,0 960.00001,0 l 0,540 -959.999995695,0 0,-540 z" /></clipPath><clipPath
       id="clipPath78"
       clipPathUnits="userSpaceOnUse"><path
         style="clip-rule:evenodd"
         id="path80"
         d="M 1.4305e-5,0 960.00001,0 l 0,540 -959.999995695,0 0,-540 z" /></clipPath><clipPath
       id="clipPath94"
       clipPathUnits="userSpaceOnUse"><path
         style="clip-rule:evenodd"
         id="path96"
         d="M 1.4305e-5,0 960.00001,0 l 0,540 -959.999995695,0 0,-540 z" /></clipPath><clipPath
       id="clipPath106"
       clipPathUnits="userSpaceOnUse"><path
         style="clip-rule:evenodd"
         id="path108"
         d="M 1.4305e-5,0 960.00001,0 l 0,540 -959.999995695,0 0,-540 z" /></clipPath><clipPath
       id="clipPath118"
       clipPathUnits="userSpaceOnUse"><path
         style="clip-rule:evenodd"
         id="path120"
         d="M 1.4305e-5,0 960.00001,0 l 0,540 -959.999995695,0 0,-540 z" /></clipPath><clipPath
       id="clipPath130"
       clipPathUnits="userSpaceOnUse"><path
         style="clip-rule:evenodd"
         id="path132"
         d="M 1.4305e-5,0 960.00001,0 l 0,540 -959.999995695,0 0,-540 z" /></clipPath><clipPath
       id="clipPath146"
       clipPathUnits="userSpaceOnUse"><path
         style="clip-rule:evenodd"
         id="path148"
         d="M 1.4305e-5,0 960.00001,0 l 0,540 -959.999995695,0 0,-540 z" /></clipPath><clipPath
       id="clipPath158"
       clipPathUnits="userSpaceOnUse"><path
         style="clip-rule:evenodd"
         id="path160"
         d="M 1.4305e-5,0 960.00001,0 l 0,540 -959.999995695,0 0,-540 z" /></clipPath><clipPath
       id="clipPath170"
       clipPathUnits="userSpaceOnUse"><path
         style="clip-rule:evenodd"
         id="path172"
         d="M 1.4305e-5,0 960.00001,0 l 0,540 -959.999995695,0 0,-540 z" /></clipPath><clipPath
       id="clipPath182"
       clipPathUnits="userSpaceOnUse"><path
         style="clip-rule:evenodd"
         id="path184"
         d="M 1.4305e-5,0 960.00001,0 l 0,540 -959.999995695,0 0,-540 z" /></clipPath><clipPath
       id="clipPath194"
       clipPathUnits="userSpaceOnUse"><path
         style="clip-rule:evenodd"
         id="path196"
         d="M 1.4305e-5,0 960.00001,0 l 0,540 -959.999995695,0 0,-540 z" /></clipPath><clipPath
       id="clipPath206"
       clipPathUnits="userSpaceOnUse"><path
         style="clip-rule:evenodd"
         id="path208"
         d="M 1.4305e-5,0 960.00001,0 l 0,540 -959.999995695,0 0,-540 z" /></clipPath><clipPath
       id="clipPath222"
       clipPathUnits="userSpaceOnUse"><path
         style="clip-rule:evenodd"
         id="path224"
         d="M 1.4305e-5,0 960.00001,0 l 0,540 -959.999995695,0 0,-540 z" /></clipPath><clipPath
       id="clipPath234"
       clipPathUnits="userSpaceOnUse"><path
         style="clip-rule:evenodd"
         id="path236"
         d="M 1.4305e-5,0 960.00001,0 l 0,540 -959.999995695,0 0,-540 z" /></clipPath><clipPath
       id="clipPath246"
       clipPathUnits="userSpaceOnUse"><path
         style="clip-rule:evenodd"
         id="path248"
         d="M 1.4305e-5,0 960.00001,0 l 0,540 -959.999995695,0 0,-540 z" /></clipPath><clipPath
       id="clipPath258"
       clipPathUnits="userSpaceOnUse"><path
         style="clip-rule:evenodd"
         id="path260"
         d="M 1.4305e-5,0 960.00001,0 l 0,540 -959.999995695,0 0,-540 z" /></clipPath><clipPath
       id="clipPath270"
       clipPathUnits="userSpaceOnUse"><path
         style="clip-rule:evenodd"
         id="path272"
         d="M 1.4305e-5,0 960.00001,0 l 0,540 -959.999995695,0 0,-540 z" /></clipPath><clipPath
       id="clipPath288"
       clipPathUnits="userSpaceOnUse"><path
         style="clip-rule:evenodd"
         id="path290"
         d="M 1.4305e-5,0 960.00001,0 l 0,540 -959.999995695,0 0,-540 z" /></clipPath><clipPath
       id="clipPath300"
       clipPathUnits="userSpaceOnUse"><path
         style="clip-rule:evenodd"
         id="path302"
         d="M 1.4305e-5,0 960.00001,0 l 0,540 -959.999995695,0 0,-540 z" /></clipPath><clipPath
       id="clipPath312"
       clipPathUnits="userSpaceOnUse"><path
         style="clip-rule:evenodd"
         id="path314"
         d="M 1.4305e-5,0 960.00001,0 l 0,540 -959.999995695,0 0,-540 z" /></clipPath><clipPath
       id="clipPath324"
       clipPathUnits="userSpaceOnUse"><path
         style="clip-rule:evenodd"
         id="path326"
         d="M 1.4305e-5,0 960.00001,0 l 0,540 -959.999995695,0 0,-540 z" /></clipPath></defs><g
     transform="matrix(1.25,0,0,-1.25,0,675)"
     id="g10"><g
       id="g12"><g
         clip-path="url(#clipPath16)"
         id="g14"><path
           id="path20"
           style="fill:#ffffff;fill-opacity:1;fill-rule:evenodd;stroke:none"
           d="m 0,6.1035e-5 960,0 0,539.999998965 -960,0 L 0,6.1035e-5 Z" /></g></g><path
       id="path22"
       style="fill:#e7b9b1;fill-opacity:1;fill-rule:evenodd;stroke:none"
       d="m 59.28,22.44 393.48,0 0,466.68 -393.48,0 0,-466.68 z" /><path
       id="path24"
       style="fill:none;stroke:#000000;stroke-width:0.95999998;stroke-linecap:butt;stroke-linejoin:miter;stroke-miterlimit:10;stroke-dasharray:none;stroke-opacity:1"
       d="m 59.28,22.44 393.48,0 0,466.68 -393.48,0 0,-466.68 z" /><path
       id="path26"
       style="fill:#e2f0d9;fill-opacity:1;fill-rule:evenodd;stroke:none"
       d="m 192.84,167.52 243.96,0 0,312.96 -243.96,0 0,-312.96 z" /><path
       id="path28"
       style="fill:none;stroke:#000000;stroke-width:0.95999998;stroke-linecap:butt;stroke-linejoin:miter;stroke-miterlimit:10;stroke-dasharray:none;stroke-opacity:1"
       d="m 192.84,167.52 243.96,0 0,312.96 -243.96,0 0,-312.96 z" /><path
       id="path30"
       style="fill:#ffffff;fill-opacity:1;fill-rule:evenodd;stroke:none"
       d="m 218.16,429.42 c 0,22.43 24.53,40.62 54.78,40.62 30.25,0 54.78,-18.19 54.78,-40.62 0,-22.43 -24.53,-40.62 -54.78,-40.62 -30.25,0 -54.78,18.19 -54.78,40.62 z" /><path
       id="path32"
       style="fill:none;stroke:#000000;stroke-width:0.95999998;stroke-linecap:butt;stroke-linejoin:miter;stroke-miterlimit:10;stroke-dasharray:none;stroke-opacity:1"
       d="m 218.16,429.42 c 0,22.43 24.53,40.62 54.78,40.62 30.25,0 54.78,-18.19 54.78,-40.62 0,-22.43 -24.53,-40.62 -54.78,-40.62 -30.25,0 -54.78,18.19 -54.78,40.62 z" /><g
       id="g34"><g
         clip-path="url(#clipPath38)"
         id="g36"><text
           id="text42"
           style="font-variant:normal;font-weight:normal;font-size:24px;font-family:Helvetica;-inkscape-font-specification:Helvetica;writing-mode:lr-tb;fill:#000000;fill-opacity:1;fill-rule:nonzero;stroke:none"
           transform="matrix(1,0,0,-1,241.58,439.56)"><tspan
             id="tspan44"
             y="0"
             x="0 16.007999 22.68 30.672001 36 49.344002">String</tspan></text>
</g></g><g
       id="g46"><g
         clip-path="url(#clipPath50)"
         id="g48"><text
           id="text54"
           style="font-variant:normal;font-weight:normal;font-size:32.04000092px;font-family:Helvetica;-inkscape-font-specification:Helvetica;writing-mode:lr-tb;fill:#000000;fill-opacity:1;fill-rule:nonzero;stroke:none"
           transform="matrix(1,0,0,-1,244.46,403.08)"><tspan
             id="tspan56"
             y="0"
             x="0 10.66932 28.483561 46.201679">“aa”</tspan></text>
</g></g><path
       id="path58"
       style="fill:#ffffff;fill-opacity:1;fill-rule:evenodd;stroke:none"
       d="m 60.96,400.86 c 0,25.28 24.848,45.78 55.5,45.78 30.65,0 55.5,-20.5 55.5,-45.78 0,-25.28 -24.85,-45.78 -55.5,-45.78 -30.652,0 -55.5,20.5 -55.5,45.78 z" /><path
       id="path60"
       style="fill:none;stroke:#000000;stroke-width:0.95999998;stroke-linecap:butt;stroke-linejoin:miter;stroke-miterlimit:10;stroke-dasharray:none;stroke-opacity:1"
       d="m 60.96,400.86 c 0,25.28 24.848,45.78 55.5,45.78 30.65,0 55.5,-20.5 55.5,-45.78 0,-25.28 -24.85,-45.78 -55.5,-45.78 -30.652,0 -55.5,20.5 -55.5,45.78 z" /><g
       id="g62"><g
         clip-path="url(#clipPath66)"
         id="g64"><text
           id="text70"
           style="font-variant:normal;font-weight:normal;font-size:24px;font-family:Helvetica;-inkscape-font-specification:Helvetica;writing-mode:lr-tb;fill:#000000;fill-opacity:1;fill-rule:nonzero;stroke:none"
           transform="matrix(1,0,0,-1,85.08,411)"><tspan
             id="tspan72"
             y="0"
             x="0 16.007999 22.68 30.672001 36 49.344002">String</tspan></text>
</g></g><g
       id="g74"><g
         clip-path="url(#clipPath78)"
         id="g76"><text
           id="text82"
           style="font-variant:normal;font-weight:normal;font-size:32.04000092px;font-family:Helvetica;-inkscape-font-specification:Helvetica;writing-mode:lr-tb;fill:#000000;fill-opacity:1;fill-rule:nonzero;stroke:none"
           transform="matrix(1,0,0,-1,96.84,374.52)"><tspan
             id="tspan84"
             y="0"
             x="0 10.66932 28.483561">“a”</tspan></text>
</g></g><path
       id="path86"
       style="fill:#ffffff;fill-opacity:1;fill-rule:evenodd;stroke:none"
       d="m 171.96,99.96 c 0,25.32 30.38,45.84 67.86,45.84 37.48,0 67.86,-20.52 67.86,-45.84 0,-25.317 -30.38,-45.84 -67.86,-45.84 -37.48,0 -67.86,20.523 -67.86,45.84 z" /><path
       id="path88"
       style="fill:none;stroke:#000000;stroke-width:0.95999998;stroke-linecap:butt;stroke-linejoin:miter;stroke-miterlimit:10;stroke-dasharray:none;stroke-opacity:1"
       d="m 171.96,99.96 c 0,25.32 30.38,45.84 67.86,45.84 37.48,0 67.86,-20.52 67.86,-45.84 0,-25.317 -30.38,-45.84 -67.86,-45.84 -37.48,0 -67.86,20.523 -67.86,45.84 z" /><g
       id="g90"><g
         clip-path="url(#clipPath94)"
         id="g92"><text
           id="text98"
           style="font-variant:normal;font-weight:normal;font-size:24px;font-family:Helvetica;-inkscape-font-specification:Helvetica;writing-mode:lr-tb;fill:#000000;fill-opacity:1;fill-rule:nonzero;stroke:none"
           transform="matrix(1,0,0,-1,208.49,110.06)"><tspan
             id="tspan100"
             y="0"
             x="0 16.007999 22.68 30.672001 36 49.344002">String</tspan></text>
</g></g><g
       id="g102"><g
         clip-path="url(#clipPath106)"
         id="g104"><text
           id="text110"
           style="font-variant:normal;font-weight:normal;font-size:32.04000092px;font-family:Helvetica;-inkscape-font-specification:Helvetica;writing-mode:lr-tb;fill:#000000;fill-opacity:1;fill-rule:nonzero;stroke:none"
           transform="matrix(1,0,0,-1,203.33,73.584)"><tspan
             id="tspan112"
             y="0"
             x="0">“</tspan></text>
</g></g><g
       id="g114"><g
         clip-path="url(#clipPath118)"
         id="g116"><text
           id="text122"
           style="font-variant:normal;font-weight:normal;font-size:32.04000092px;font-family:Helvetica;-inkscape-font-specification:Helvetica;writing-mode:lr-tb;fill:#000000;fill-opacity:1;fill-rule:nonzero;stroke:none"
           transform="matrix(1,0,0,-1,214.01,73.584)"><tspan
             id="tspan124"
             y="0"
             x="0 17.81424 33.83424">acb</tspan></text>
</g></g><g
       id="g126"><g
         clip-path="url(#clipPath130)"
         id="g128"><text
           id="text134"
           style="font-variant:normal;font-weight:normal;font-size:32.04000092px;font-family:Helvetica;-inkscape-font-specification:Helvetica;writing-mode:lr-tb;fill:#000000;fill-opacity:1;fill-rule:nonzero;stroke:none"
           transform="matrix(1,0,0,-1,265.63,73.584)"><tspan
             id="tspan136"
             y="0"
             x="0">”</tspan></text>
</g></g><path
       id="path138"
       style="fill:#ffffff;fill-opacity:1;fill-rule:evenodd;stroke:none"
       d="m 277.44,229.98 c 0,25.28 27.35,45.78 61.08,45.78 33.73,0 61.08,-20.5 61.08,-45.78 0,-25.28 -27.35,-45.78 -61.08,-45.78 -33.73,0 -61.08,20.5 -61.08,45.78 z" /><path
       id="path140"
       style="fill:none;stroke:#000000;stroke-width:0.95999998;stroke-linecap:butt;stroke-linejoin:miter;stroke-miterlimit:10;stroke-dasharray:none;stroke-opacity:1"
       d="m 277.44,229.98 c 0,25.28 27.35,45.78 61.08,45.78 33.73,0 61.08,-20.5 61.08,-45.78 0,-25.28 -27.35,-45.78 -61.08,-45.78 -33.73,0 -61.08,20.5 -61.08,45.78 z" /><g
       id="g142"><g
         clip-path="url(#clipPath146)"
         id="g144"><text
           id="text150"
           style="font-variant:normal;font-weight:normal;font-size:24px;font-family:Helvetica;-inkscape-font-specification:Helvetica;writing-mode:lr-tb;fill:#000000;fill-opacity:1;fill-rule:nonzero;stroke:none"
           transform="matrix(1,0,0,-1,307.22,237.72)"><tspan
             id="tspan152"
             y="0"
             x="0 16.007999 22.68 30.672001 36 49.344002">String</tspan></text>
</g></g><g
       id="g154"><g
         clip-path="url(#clipPath158)"
         id="g156"><text
           id="text162"
           style="font-variant:normal;font-weight:normal;font-size:27.98399925px;font-family:Helvetica;-inkscape-font-specification:Helvetica;writing-mode:lr-tb;fill:#000000;fill-opacity:1;fill-rule:nonzero;stroke:none"
           transform="matrix(1,0,0,-1,314.3,205.08)"><tspan
             id="tspan164"
             y="0"
             x="0 9.359972 24.960377 38.993675">“ac”</tspan></text>
</g></g><g
       id="g166"><g
         clip-path="url(#clipPath170)"
         id="g168"><text
           id="text174"
           style="font-variant:normal;font-weight:normal;font-size:44.06399918px;font-family:Helvetica;-inkscape-font-specification:Helvetica;writing-mode:lr-tb;fill:#000000;fill-opacity:1;fill-rule:nonzero;stroke:none"
           transform="matrix(1,0,0,-1,655.3,202.3)"><tspan
             id="tspan176"
             y="0"
             x="0">{</tspan></text>
</g></g><g
       id="g178"><g
         clip-path="url(#clipPath182)"
         id="g180"><text
           id="text186"
           style="font-variant:normal;font-weight:normal;font-size:44.06399918px;font-family:Helvetica;-inkscape-font-specification:Helvetica;writing-mode:lr-tb;fill:#000000;fill-opacity:1;fill-rule:nonzero;stroke:none"
           transform="matrix(1,0,0,-1,670.06,202.3)"><tspan
             id="tspan188"
             y="0"
             x="0 24.479984 36.710175 61.190159 73.420349">a,b,c</tspan></text>
</g></g><g
       id="g190"><g
         clip-path="url(#clipPath194)"
         id="g192"><text
           id="text198"
           style="font-variant:normal;font-weight:normal;font-size:44.06399918px;font-family:Helvetica;-inkscape-font-specification:Helvetica;writing-mode:lr-tb;fill:#000000;fill-opacity:1;fill-rule:nonzero;stroke:none"
           transform="matrix(1,0,0,-1,765.58,202.3)"><tspan
             id="tspan200"
             y="0"
             x="0">}</tspan></text>
</g></g><g
       id="g202"><g
         clip-path="url(#clipPath206)"
         id="g204"><text
           id="text210"
           style="font-variant:normal;font-weight:normal;font-size:44.04000092px;font-family:Helvetica;-inkscape-font-specification:Helvetica;writing-mode:lr-tb;fill:#000000;fill-opacity:1;fill-rule:nonzero;stroke:none"
           transform="matrix(1,0,0,-1,682.68,380.9)"><tspan
             id="tspan212"
             y="0"
             x="0 14.70936 39.195599">{a}</tspan></text>
</g></g><path
       id="path214"
       style="fill:#000000;fill-opacity:1;fill-rule:nonzero;stroke:none"
       d="m 412.53,232.91 211.22,-14.7 -0.42,-5.99 -211.22,14.71 0.42,5.98 z m 208.64,-8.51 17.33,-10.23 -18.58,-7.72 1.25,17.95 z" /><path
       id="path216"
       style="fill:#000000;fill-opacity:1;fill-rule:nonzero;stroke:none"
       d="m 372.68,340.19 274.27,-18.26 -0.4,-5.99 -274.27,18.27 0.4,5.98 z m 271.67,-12.07 17.37,-10.18 -18.56,-7.78 1.19,17.96 z" /><g
       id="g218"><g
         clip-path="url(#clipPath222)"
         id="g220"><text
           id="text226"
           style="font-variant:normal;font-weight:normal;font-size:44.04000092px;font-family:Helvetica;-inkscape-font-specification:Helvetica;writing-mode:lr-tb;fill:#000000;fill-opacity:1;fill-rule:nonzero;stroke:none"
           transform="matrix(1,0,0,-1,669,290.66)"><tspan
             id="tspan228"
             y="0"
             x="0">{</tspan></text>
</g></g><g
       id="g230"><g
         clip-path="url(#clipPath234)"
         id="g232"><text
           id="text238"
           style="font-variant:normal;font-weight:normal;font-size:44.04000092px;font-family:Helvetica;-inkscape-font-specification:Helvetica;writing-mode:lr-tb;fill:#000000;fill-opacity:1;fill-rule:nonzero;stroke:none"
           transform="matrix(1,0,0,-1,683.76,290.66)"><tspan
             id="tspan240"
             y="0"
             x="0 24.48 36.716881">a,c</tspan></text>
</g></g><g
       id="g242"><g
         clip-path="url(#clipPath246)"
         id="g244"><text
           id="text250"
           style="font-variant:normal;font-weight:normal;font-size:44.04000092px;font-family:Helvetica;-inkscape-font-specification:Helvetica;writing-mode:lr-tb;fill:#000000;fill-opacity:1;fill-rule:nonzero;stroke:none"
           transform="matrix(1,0,0,-1,742.58,290.66)"><tspan
             id="tspan252"
             y="0"
             x="0">}</tspan></text>
</g></g><g
       id="g254"><g
         clip-path="url(#clipPath258)"
         id="g256"><text
           id="text262"
           style="font-variant:normal;font-weight:normal;font-size:44.04000092px;font-family:Helvetica;-inkscape-font-specification:Helvetica;writing-mode:lr-tb;fill:#000000;fill-opacity:1;fill-rule:nonzero;stroke:none"
           transform="matrix(1,0,0,-1,225.43,503.28)"><tspan
             id="tspan264"
             y="0"
             x="0">R</tspan></text>
</g></g><g
       id="g266"><g
         clip-path="url(#clipPath270)"
         id="g268"><text
           id="text274"
           style="font-variant:normal;font-weight:normal;font-size:44.06399918px;font-family:Helvetica;-inkscape-font-specification:Helvetica;writing-mode:lr-tb;fill:#000000;fill-opacity:1;fill-rule:nonzero;stroke:none"
           transform="matrix(1,0,0,-1,711.05,503.45)"><tspan
             id="tspan276"
             y="0"
             x="0">A</tspan></text>
</g></g><path
       id="path278"
       style="fill:none;stroke:#000000;stroke-width:0.95999998;stroke-linecap:butt;stroke-linejoin:miter;stroke-miterlimit:10;stroke-dasharray:none;stroke-opacity:1"
       d="m 534.36,22.56 393.48,0 0,466.8 -393.48,0 0,-466.8 z" /><path
       id="path280"
       style="fill:#ffffff;fill-opacity:1;fill-rule:evenodd;stroke:none"
       d="m 207.36,336.66 c 0,22.43 34.98,40.62 78.12,40.62 43.14,0 78.12,-18.19 78.12,-40.62 0,-22.43 -34.98,-40.62 -78.12,-40.62 -43.14,0 -78.12,18.19 -78.12,40.62 z" /><path
       id="path282"
       style="fill:none;stroke:#000000;stroke-width:0.95999998;stroke-linecap:butt;stroke-linejoin:miter;stroke-miterlimit:10;stroke-dasharray:none;stroke-opacity:1"
       d="m 207.36,336.66 c 0,22.43 34.98,40.62 78.12,40.62 43.14,0 78.12,-18.19 78.12,-40.62 0,-22.43 -34.98,-40.62 -78.12,-40.62 -43.14,0 -78.12,18.19 -78.12,40.62 z" /><g
       id="g284"><g
         clip-path="url(#clipPath288)"
         id="g286"><text
           id="text292"
           style="font-variant:normal;font-weight:normal;font-size:24px;font-family:Helvetica;-inkscape-font-specification:Helvetica;writing-mode:lr-tb;fill:#000000;fill-opacity:1;fill-rule:nonzero;stroke:none"
           transform="matrix(1,0,0,-1,254.21,346.82)"><tspan
             id="tspan294"
             y="0"
             x="0 16.007999 22.68 30.672001 36 49.344002">String</tspan></text>
</g></g><g
       id="g296"><g
         clip-path="url(#clipPath300)"
         id="g298"><text
           id="text304"
           style="font-variant:normal;font-weight:normal;font-size:32.04000092px;font-family:Helvetica;-inkscape-font-specification:Helvetica;writing-mode:lr-tb;fill:#000000;fill-opacity:1;fill-rule:nonzero;stroke:none"
           transform="matrix(1,0,0,-1,241.01,310.34)"><tspan
             id="tspan306"
             y="0"
             x="0">“</tspan></text>
</g></g><g
       id="g308"><g
         clip-path="url(#clipPath312)"
         id="g310"><text
           id="text316"
           style="font-variant:normal;font-weight:normal;font-size:32.04000092px;font-family:Helvetica;-inkscape-font-specification:Helvetica;writing-mode:lr-tb;fill:#000000;fill-opacity:1;fill-rule:nonzero;stroke:none"
           transform="matrix(1,0,0,-1,251.69,310.34)"><tspan
             id="tspan318"
             y="0"
             x="0 17.81424 35.53236 51.552361">aacc</tspan></text>
</g></g><g
       id="g320"><g
         clip-path="url(#clipPath324)"
         id="g322"><text
           id="text328"
           style="font-variant:normal;font-weight:normal;font-size:32.04000092px;font-family:Helvetica;-inkscape-font-specification:Helvetica;writing-mode:lr-tb;fill:#000000;fill-opacity:1;fill-rule:nonzero;stroke:none"
           transform="matrix(1,0,0,-1,319.39,310.34)"><tspan
             id="tspan330"
             y="0"
             x="0">”</tspan></text>
</g></g><path
       id="path332"
       style="fill:#000000;fill-opacity:1;fill-rule:nonzero;stroke:none"
       d="m 348.73,423 311.87,-13.61 -0.26,-5.99 -311.87,13.6 0.26,6 z m 309.14,-7.48 17.59,-9.78 -18.38,-8.2 0.79,17.98 z" /></g></svg>